# xmcd
#
# Track frame offsets:
#	150
#	13072
#	24069
#	38754
#	53946
#	66235
#	78800
#	91467
#	102312
#	121421
#	131993
#	142568
#	153008
#	169095
#	181480
#	199473
#	217173
#	230797
#	245837
#	262022
#	274857
#	290737
#	305337
#
# Disc length: 4339 seconds
#
# Revision: 1
# Processed by: cddbd v1.4PL0 Copyright (c) Steve Scherf et al.
# Submitted via: audiograbber 1.82.00
#
DISCID=5410f117
DTITLE=Aretha Franklin - The Best of Aretha Franklin
DYEAR=1900
DGENRE=Soul
TTITLE0=I Never Loved A Man (The Way I Love You)
TTITLE1=Respect
TTITLE2=Do Right Woman Do Right Man
TTITLE3=Dr Feelgood
TTITLE4=Baby, I Love You
TTITLE5=Natural Woman (You Make Me Feel Like)
TTITLE6=Chain Of Fools
TTITLE7=Since Youve Been Gone (Sweet Sweet Baby)
TTITLE8=Aint No Way
TTITLE9=Save Me
TTITLE10=House That Jack Built
TTITLE11=Think
TTITLE12=I Say a Little Prayer
TTITLE13=See Saw
TTITLE14=Day Dreaming
TTITLE15=Call Me
TTITLE16=Dont Play That Song (You Lied)
TTITLE17=Border Song (Holy Moses)
TTITLE18=You're All I Need To Get By
TTITLE19=I'm In Love
TTITLE20=Spanish Harlem
TTITLE21=Rock Steady
TTITLE22=Angel
EXTD=
EXTT0=
EXTT1=
EXTT2=
EXTT3=
EXTT4=
EXTT5=
EXTT6=
EXTT7=
EXTT8=
EXTT9=
EXTT10=
EXTT11=
EXTT12=
EXTT13=
EXTT14=
EXTT15=
EXTT16=
EXTT17=
EXTT18=
EXTT19=
EXTT20=
EXTT21=
EXTT22=
PLAYORDER=
